<mxfile host="65bd71144e">
    <diagram id="x_w5uLoY8-Y_Oc6xMrlk" name="Page-1">
        <mxGraphModel dx="2217" dy="1930" grid="1" gridSize="10" guides="1" tooltips="1" connect="1" arrows="1" fold="1" page="1" pageScale="1" pageWidth="850" pageHeight="1100" math="0" shadow="0">
            <root>
                <mxCell id="0"/>
                <mxCell id="1" parent="0"/>
                <mxCell id="5" style="edgeStyle=none;html=1;" parent="1" edge="1">
                    <mxGeometry relative="1" as="geometry">
                        <mxPoint x="-180" y="260" as="targetPoint"/>
                        <mxPoint x="-180" y="250" as="sourcePoint"/>
                    </mxGeometry>
                </mxCell>
                <mxCell id="6" style="edgeStyle=none;html=1;exitX=0.5;exitY=1;exitDx=0;exitDy=0;" parent="1" edge="1">
                    <mxGeometry relative="1" as="geometry">
                        <mxPoint x="-180" y="250" as="targetPoint"/>
                        <mxPoint x="-180" y="240" as="sourcePoint"/>
                    </mxGeometry>
                </mxCell>
                <mxCell id="7" style="edgeStyle=none;html=1;exitX=0.5;exitY=1;exitDx=0;exitDy=0;" parent="1" edge="1">
                    <mxGeometry relative="1" as="geometry">
                        <mxPoint x="-180" y="250" as="targetPoint"/>
                        <mxPoint x="-180" y="240" as="sourcePoint"/>
                    </mxGeometry>
                </mxCell>
                <mxCell id="9" value="Componet- header.js&lt;br&gt;(child of App.js)" style="rounded=0;whiteSpace=wrap;html=1;" parent="1" vertex="1">
                    <mxGeometry x="-310" y="-290" width="420" height="80" as="geometry"/>
                </mxCell>
                <mxCell id="10" value="" style="rounded=0;whiteSpace=wrap;html=1;" parent="1" vertex="1">
                    <mxGeometry x="-310" y="-230" width="90" height="20" as="geometry"/>
                </mxCell>
                <mxCell id="11" value="" style="rounded=0;whiteSpace=wrap;html=1;" parent="1" vertex="1">
                    <mxGeometry x="-210" y="-230" width="100" height="20" as="geometry"/>
                </mxCell>
                <mxCell id="14" value="" style="endArrow=classic;html=1;rounded=1;" parent="1" edge="1">
                    <mxGeometry width="50" height="50" relative="1" as="geometry">
                        <mxPoint x="20" y="190" as="sourcePoint"/>
                        <mxPoint x="70" y="140" as="targetPoint"/>
                    </mxGeometry>
                </mxCell>
                <mxCell id="16" value="" style="rounded=0;whiteSpace=wrap;html=1;" parent="1" vertex="1">
                    <mxGeometry x="-360" y="-160" width="600" height="440" as="geometry"/>
                </mxCell>
                <mxCell id="17" value="Componet - Main.js" style="text;html=1;align=center;verticalAlign=middle;resizable=0;points=[];autosize=1;strokeColor=none;fillColor=none;" vertex="1" parent="1">
                    <mxGeometry x="-160" y="-200" width="120" height="20" as="geometry"/>
                </mxCell>
                <mxCell id="18" value="child of App.js&lt;br&gt;" style="text;html=1;align=center;verticalAlign=middle;resizable=0;points=[];autosize=1;strokeColor=none;fillColor=none;" vertex="1" parent="1">
                    <mxGeometry x="-145" y="-180" width="90" height="20" as="geometry"/>
                </mxCell>
                <mxCell id="21" value="cart Icon" style="whiteSpace=wrap;html=1;aspect=fixed;" vertex="1" parent="1">
                    <mxGeometry x="160" y="-240" width="50" height="50" as="geometry"/>
                </mxCell>
                <mxCell id="22" value="app" style="rounded=0;whiteSpace=wrap;html=1;" vertex="1" parent="1">
                    <mxGeometry x="490" y="-310" width="160" height="80" as="geometry"/>
                </mxCell>
                <mxCell id="23" value="Main&lt;br&gt;-array of objects {ItemName, quantity,category,price}" style="rounded=0;whiteSpace=wrap;html=1;" vertex="1" parent="1">
                    <mxGeometry x="380" y="-90" width="160" height="60" as="geometry"/>
                </mxCell>
                <mxCell id="24" value="add to cart method" style="endArrow=classic;html=1;exitX=0.25;exitY=1;exitDx=0;exitDy=0;" edge="1" parent="1" source="22">
                    <mxGeometry width="50" height="50" relative="1" as="geometry">
                        <mxPoint x="240" as="sourcePoint"/>
                        <mxPoint x="490" y="-100" as="targetPoint"/>
                    </mxGeometry>
                </mxCell>
                <mxCell id="26" value="Shopping Cart" style="rounded=0;whiteSpace=wrap;html=1;" vertex="1" parent="1">
                    <mxGeometry x="580" y="-90" width="120" height="60" as="geometry"/>
                </mxCell>
                <mxCell id="27" value="-Shopping cart Array&lt;br&gt;-clear cart function" style="endArrow=classic;html=1;exitX=0.763;exitY=1.087;exitDx=0;exitDy=0;exitPerimeter=0;" edge="1" parent="1" source="22" target="26">
                    <mxGeometry width="50" height="50" relative="1" as="geometry">
                        <mxPoint x="400" y="-110" as="sourcePoint"/>
                        <mxPoint x="450" y="-160" as="targetPoint"/>
                    </mxGeometry>
                </mxCell>
                <mxCell id="28" value="category view" style="rounded=0;whiteSpace=wrap;html=1;" vertex="1" parent="1">
                    <mxGeometry x="370" y="50" width="120" height="60" as="geometry"/>
                </mxCell>
                <mxCell id="29" value="-Products to display&lt;br&gt;-add to cart method" style="endArrow=classic;html=1;exitX=0.5;exitY=1;exitDx=0;exitDy=0;entryX=0.5;entryY=0;entryDx=0;entryDy=0;" edge="1" parent="1" source="23" target="28">
                    <mxGeometry width="50" height="50" relative="1" as="geometry">
                        <mxPoint x="400" y="-20" as="sourcePoint"/>
                        <mxPoint x="450" y="-70" as="targetPoint"/>
                    </mxGeometry>
                </mxCell>
            </root>
        </mxGraphModel>
    </diagram>
</mxfile>